<svg width="20" height="20" viewBox="0 0 20 20" fill="none" xmlns="http://www.w3.org/2000/svg">
<path d="M14.7398 12.0696L14.7335 5.7666C14.7335 5.32715 14.4448 5.02581 13.9927 5.02581H7.68345C7.25656 5.02581 6.9615 5.34598 6.9615 5.72266C6.9615 6.09305 7.28167 6.40067 7.66462 6.40067H9.91839L12.5802 6.31278L11.4376 7.31724L5.47991 13.2813C5.33552 13.4319 5.25391 13.6077 5.25391 13.7835C5.25391 14.1539 5.59291 14.5054 5.97587 14.5054C6.15165 14.5054 6.32743 14.4301 6.4781 14.2857L12.4421 8.32171L13.4591 7.17913L13.3524 9.72796V12.0884C13.3524 12.4777 13.66 12.8041 14.043 12.8041C14.4196 12.8041 14.7398 12.484 14.7398 12.0696Z" fill="#0BD096"/>
</svg>
