<svg width="32" height="33" viewBox="0 0 32 33" fill="none" xmlns="http://www.w3.org/2000/svg">
<rect y="0.0324707" width="32" height="32" rx="8" fill="#202024"/>
<path opacity="0.5" d="M24.9955 8.12171L20.3468 24.59C20.3232 24.6648 20.2286 24.6872 20.1735 24.6349L17.0612 21.6821L19.3934 13.4293C19.4171 13.3545 19.3462 13.2872 19.2674 13.3096L10.5687 15.5224L7.4722 12.5845C7.41704 12.5322 7.44068 12.4425 7.51947 12.4201L24.8695 8.00211C24.9483 7.98715 25.0192 8.05443 24.9955 8.12171Z" fill="#00B37E"/>
<path opacity="0.5" d="M17.0609 21.6821L15.8633 25.9431C15.8397 26.0178 15.7451 26.0402 15.69 25.9879L6.03006 16.8305C5.9749 16.7782 5.99854 16.6885 6.07733 16.6661L10.5685 15.5223L17.0609 21.6821Z" fill="#00B37E"/>
<path d="M19.3928 13.4292L17.0606 21.682L10.5681 15.5223L19.2668 13.3096C19.3455 13.2871 19.4165 13.3544 19.3928 13.4292Z" fill="#00B37E"/>
</svg>
