<svg width="171" height="37" viewBox="0 0 171 37" fill="none" xmlns="http://www.w3.org/2000/svg">
<path opacity="0.5" d="M37.9907 0.243422L28.6933 33.1799C28.646 33.3295 28.4569 33.3743 28.3466 33.2697L22.1221 27.3641L26.7865 10.8585C26.8338 10.709 26.692 10.5744 26.5344 10.6192L9.13718 15.0447L2.94415 9.16903C2.83384 9.06437 2.88112 8.88496 3.0387 8.84011L37.7386 0.00421032C37.8961 -0.0256912 38.038 0.108866 37.9907 0.243422Z" fill="#00B37E"/>
<path opacity="0.5" d="M22.1218 27.3639L19.7265 35.8858C19.6793 36.0353 19.4902 36.0802 19.3798 35.9755L0.0601177 17.6608C-0.0501907 17.5562 -0.00291596 17.3768 0.154667 17.3319L9.13692 15.0444L22.1218 27.3639Z" fill="#00B37E"/>
<path d="M26.7858 10.8582L22.1213 27.3639L9.13647 15.0444L26.5337 10.619C26.6913 10.5741 26.8331 10.7087 26.7858 10.8582Z" fill="#00B37E"/>
<path d="M45.7354 9.76017V27.9497H42V9.76017H45.7354Z" fill="#E1E1E6"/>
<path d="M57.5786 14.4325H60.8392V27.5C60.8392 28.7326 60.5644 29.7779 60.0147 30.6357C59.4733 31.5019 58.7154 32.1557 57.741 32.5971C56.7665 33.0468 55.6338 33.2717 54.3429 33.2717C53.7766 33.2717 53.1769 33.1967 52.544 33.0468C51.9193 32.8969 51.3197 32.6637 50.745 32.3472C50.1786 32.0307 49.7039 31.631 49.3208 31.1479L50.9074 29.0241C51.3238 29.5072 51.8069 29.882 52.3566 30.1485C52.9062 30.4233 53.5142 30.5607 54.1805 30.5607C54.8301 30.5607 55.3798 30.44 55.8296 30.1984C56.2793 29.9652 56.6249 29.6196 56.8665 29.1615C57.108 28.7118 57.2288 28.1663 57.2288 27.525V17.5557L57.5786 14.4325ZM48.4838 21.3535V21.0912C48.4838 20.0584 48.6087 19.1215 48.8586 18.2803C49.1168 17.4308 49.479 16.702 49.9454 16.094C50.4202 15.4861 50.9948 15.0155 51.6695 14.6823C52.3441 14.3492 53.1061 14.1826 53.9556 14.1826C54.8551 14.1826 55.6089 14.3492 56.2168 14.6823C56.8248 15.0155 57.3245 15.4902 57.716 16.1065C58.1074 16.7145 58.4114 17.4349 58.628 18.2678C58.8528 19.0923 59.0277 19.996 59.1527 20.9787V21.5534C59.0277 22.4945 58.8403 23.369 58.5905 24.1769C58.3406 24.9848 58.0117 25.6927 57.6036 26.3007C57.1955 26.9003 56.6874 27.3667 56.0794 27.6999C55.4798 28.033 54.7635 28.1996 53.9307 28.1996C53.0978 28.1996 52.3441 28.0289 51.6695 27.6874C51.0032 27.3459 50.4327 26.867 49.9579 26.2507C49.4832 25.6344 49.1168 24.9098 48.8586 24.077C48.6087 23.2441 48.4838 22.3363 48.4838 21.3535ZM52.0817 21.0912V21.3535C52.0817 21.9115 52.1359 22.4321 52.2441 22.9151C52.3524 23.3982 52.519 23.8271 52.7438 24.2019C52.977 24.5683 53.2644 24.8557 53.6058 25.0639C53.9556 25.2638 54.3679 25.3637 54.8426 25.3637C55.5006 25.3637 56.0378 25.2263 56.4542 24.9515C56.8706 24.6683 57.183 24.281 57.3912 23.7896C57.5994 23.2982 57.7202 22.7319 57.7535 22.0906V20.454C57.7368 19.9293 57.666 19.4588 57.5411 19.0423C57.4162 18.6176 57.2413 18.2553 57.0164 17.9555C56.7915 17.6556 56.5 17.4224 56.1419 17.2559C55.7838 17.0893 55.359 17.006 54.8676 17.006C54.3929 17.006 53.9806 17.1143 53.6308 17.3308C53.2894 17.539 53.002 17.8264 52.7688 18.1928C52.544 18.5593 52.3732 18.9924 52.2566 19.4921C52.14 19.9835 52.0817 20.5165 52.0817 21.0912Z" fill="#E1E1E6"/>
<path d="M67.1606 17.3183V27.9497H63.5626V14.4325H66.9357L67.1606 17.3183ZM66.6359 20.7164H65.6614C65.6614 19.717 65.7905 18.8175 66.0487 18.0179C66.3069 17.2101 66.6692 16.523 67.1356 15.9566C67.602 15.3819 68.1558 14.9447 68.7971 14.6449C69.4468 14.3367 70.1713 14.1826 70.9709 14.1826C71.6039 14.1826 72.1827 14.2742 72.7074 14.4575C73.2321 14.6407 73.6818 14.9322 74.0566 15.332C74.4397 15.7317 74.7312 16.2606 74.9311 16.9186C75.1393 17.5765 75.2434 18.3802 75.2434 19.3297V27.9497H71.6205V19.3172C71.6205 18.7175 71.5372 18.2511 71.3707 17.918C71.2041 17.5848 70.9584 17.3516 70.6336 17.2184C70.3171 17.0768 69.9256 17.006 69.4592 17.006C68.9762 17.006 68.5556 17.1018 68.1975 17.2933C67.8477 17.4849 67.5562 17.7514 67.323 18.0929C67.0981 18.426 66.9274 18.8175 66.8108 19.2672C66.6942 19.717 66.6359 20.2 66.6359 20.7164Z" fill="#E1E1E6"/>
<path d="M81.7772 14.4325V27.9497H78.1668V14.4325H81.7772ZM77.9419 10.9095C77.9419 10.3848 78.1251 9.95173 78.4916 9.61025C78.858 9.26878 79.3494 9.09805 79.9657 9.09805C80.5737 9.09805 81.0609 9.26878 81.4274 9.61025C81.8022 9.95173 81.9896 10.3848 81.9896 10.9095C81.9896 11.4342 81.8022 11.8673 81.4274 12.2088C81.0609 12.5502 80.5737 12.721 79.9657 12.721C79.3494 12.721 78.858 12.5502 78.4916 12.2088C78.1251 11.8673 77.9419 11.4342 77.9419 10.9095Z" fill="#E1E1E6"/>
<path d="M91.3717 14.4325V16.981H83.5012V14.4325H91.3717ZM85.4501 11.0969H89.048V23.8771C89.048 24.2685 89.098 24.5683 89.1979 24.7766C89.3062 24.9848 89.4644 25.1305 89.6727 25.2138C89.8809 25.2888 90.1432 25.3262 90.4597 25.3262C90.6846 25.3262 90.8845 25.3179 91.0594 25.3013C91.2426 25.2763 91.3967 25.2513 91.5216 25.2263L91.5341 27.8748C91.2259 27.9747 90.8928 28.0538 90.5347 28.1121C90.1765 28.1704 89.7809 28.1996 89.3478 28.1996C88.5566 28.1996 87.8654 28.0705 87.274 27.8123C86.691 27.5458 86.2413 27.121 85.9248 26.538C85.6083 25.955 85.4501 25.1888 85.4501 24.2394V11.0969Z" fill="#E1E1E6"/>
<path d="M99.6419 28.1996C98.5925 28.1996 97.6514 28.033 96.8186 27.6999C95.9857 27.3584 95.2778 26.8878 94.6948 26.2882C94.1201 25.6885 93.6787 24.9931 93.3705 24.2019C93.0624 23.4023 92.9083 22.5528 92.9083 21.6533V21.1536C92.9083 20.1292 93.0541 19.1923 93.3456 18.3427C93.6371 17.4932 94.0535 16.7562 94.5948 16.1315C95.1445 15.5069 95.8108 15.028 96.5937 14.6948C97.3766 14.3534 98.2594 14.1826 99.2422 14.1826C100.2 14.1826 101.049 14.3409 101.791 14.6574C102.532 14.9738 103.152 15.4236 103.652 16.0066C104.16 16.5896 104.543 17.2892 104.801 18.1054C105.06 18.9133 105.189 19.8127 105.189 20.8038V22.303H94.4449V19.9044H101.653V19.6295C101.653 19.1298 101.562 18.6842 101.378 18.2928C101.204 17.893 100.937 17.5765 100.579 17.3433C100.221 17.1101 99.7627 16.9935 99.2047 16.9935C98.73 16.9935 98.3219 17.0976 97.9804 17.3058C97.6389 17.5141 97.3599 17.8056 97.1434 18.1803C96.9352 18.5551 96.7769 18.9965 96.6686 19.5046C96.5687 20.0043 96.5187 20.554 96.5187 21.1536V21.6533C96.5187 22.1947 96.5937 22.6944 96.7436 23.1525C96.9018 23.6106 97.1225 24.0062 97.4057 24.3393C97.6972 24.6724 98.047 24.9306 98.4551 25.1139C98.8715 25.2971 99.3421 25.3887 99.8668 25.3887C100.516 25.3887 101.12 25.2638 101.678 25.0139C102.245 24.7557 102.732 24.3685 103.14 23.8521L104.889 25.751C104.606 26.1591 104.218 26.5505 103.727 26.9253C103.244 27.3001 102.661 27.6083 101.978 27.8498C101.295 28.083 100.516 28.1996 99.6419 28.1996Z" fill="#E1E1E6"/>
<path d="M117.582 9.76017V27.9497H113.834V9.76017H117.582ZM124.827 17.5307V20.454H116.557V17.5307H124.827ZM125.702 9.76017V12.696H116.557V9.76017H125.702Z" fill="#E1E1E6"/>
<path d="M133.597 28.1996C132.548 28.1996 131.607 28.033 130.774 27.6999C129.941 27.3584 129.233 26.8878 128.65 26.2882C128.076 25.6885 127.634 24.9931 127.326 24.2019C127.018 23.4023 126.864 22.5528 126.864 21.6533V21.1536C126.864 20.1292 127.01 19.1923 127.301 18.3427C127.593 17.4932 128.009 16.7562 128.55 16.1315C129.1 15.5069 129.766 15.028 130.549 14.6948C131.332 14.3534 132.215 14.1826 133.198 14.1826C134.155 14.1826 135.005 14.3409 135.746 14.6574C136.487 14.9738 137.108 15.4236 137.608 16.0066C138.116 16.5896 138.499 17.2892 138.757 18.1054C139.015 18.9133 139.144 19.8127 139.144 20.8038V22.303H128.4V19.9044H135.609V19.6295C135.609 19.1298 135.517 18.6842 135.334 18.2928C135.159 17.893 134.893 17.5765 134.534 17.3433C134.176 17.1101 133.718 16.9935 133.16 16.9935C132.685 16.9935 132.277 17.0976 131.936 17.3058C131.594 17.5141 131.315 17.8056 131.099 18.1803C130.891 18.5551 130.732 18.9965 130.624 19.5046C130.524 20.0043 130.474 20.554 130.474 21.1536V21.6533C130.474 22.1947 130.549 22.6944 130.699 23.1525C130.857 23.6106 131.078 24.0062 131.361 24.3393C131.653 24.6724 132.003 24.9306 132.411 25.1139C132.827 25.2971 133.298 25.3887 133.822 25.3887C134.472 25.3887 135.076 25.2638 135.634 25.0139C136.2 24.7557 136.687 24.3685 137.095 23.8521L138.844 25.751C138.561 26.1591 138.174 26.5505 137.683 26.9253C137.2 27.3001 136.617 27.6083 135.934 27.8498C135.251 28.083 134.472 28.1996 133.597 28.1996Z" fill="#E1E1E6"/>
<path d="M147.415 28.1996C146.365 28.1996 145.424 28.033 144.591 27.6999C143.758 27.3584 143.05 26.8878 142.467 26.2882C141.893 25.6885 141.451 24.9931 141.143 24.2019C140.835 23.4023 140.681 22.5528 140.681 21.6533V21.1536C140.681 20.1292 140.827 19.1923 141.118 18.3427C141.41 17.4932 141.826 16.7562 142.367 16.1315C142.917 15.5069 143.583 15.028 144.366 14.6948C145.149 14.3534 146.032 14.1826 147.015 14.1826C147.973 14.1826 148.822 14.3409 149.563 14.6574C150.305 14.9738 150.925 15.4236 151.425 16.0066C151.933 16.5896 152.316 17.2892 152.574 18.1054C152.832 18.9133 152.961 19.8127 152.961 20.8038V22.303H142.218V19.9044H149.426V19.6295C149.426 19.1298 149.334 18.6842 149.151 18.2928C148.976 17.893 148.71 17.5765 148.352 17.3433C147.993 17.1101 147.535 16.9935 146.977 16.9935C146.503 16.9935 146.094 17.0976 145.753 17.3058C145.412 17.5141 145.133 17.8056 144.916 18.1803C144.708 18.5551 144.55 18.9965 144.441 19.5046C144.341 20.0043 144.291 20.554 144.291 21.1536V21.6533C144.291 22.1947 144.366 22.6944 144.516 23.1525C144.674 23.6106 144.895 24.0062 145.178 24.3393C145.47 24.6724 145.82 24.9306 146.228 25.1139C146.644 25.2971 147.115 25.3887 147.639 25.3887C148.289 25.3887 148.893 25.2638 149.451 25.0139C150.017 24.7557 150.504 24.3685 150.913 23.8521L152.662 25.751C152.378 26.1591 151.991 26.5505 151.5 26.9253C151.017 27.3001 150.434 27.6083 149.751 27.8498C149.068 28.083 148.289 28.1996 147.415 28.1996Z" fill="#E1E1E6"/>
<path d="M162.993 25.0014V8.76074H166.616V27.9497H163.355L162.993 25.0014ZM154.448 21.3535V21.0912C154.448 20.0584 154.565 19.1215 154.798 18.2803C155.031 17.4308 155.372 16.702 155.822 16.094C156.272 15.4861 156.826 15.0155 157.484 14.6823C158.142 14.3492 158.891 14.1826 159.732 14.1826C160.524 14.1826 161.215 14.3492 161.806 14.6823C162.406 15.0155 162.914 15.4902 163.33 16.1065C163.755 16.7145 164.097 17.4349 164.355 18.2678C164.613 19.0923 164.8 19.996 164.917 20.9787V21.5534C164.8 22.4945 164.613 23.369 164.355 24.1769C164.097 24.9848 163.755 25.6927 163.33 26.3007C162.914 26.9003 162.406 27.3667 161.806 27.6999C161.207 28.033 160.507 28.1996 159.707 28.1996C158.866 28.1996 158.117 28.0289 157.459 27.6874C156.809 27.3459 156.259 26.867 155.81 26.2507C155.368 25.6344 155.031 24.9098 154.798 24.077C154.565 23.2441 154.448 22.3363 154.448 21.3535ZM158.046 21.0912V21.3535C158.046 21.9115 158.088 22.4321 158.171 22.9151C158.262 23.3982 158.408 23.8271 158.608 24.2019C158.816 24.5683 159.083 24.8557 159.408 25.0639C159.741 25.2638 160.145 25.3637 160.619 25.3637C161.236 25.3637 161.744 25.2263 162.144 24.9515C162.543 24.6683 162.847 24.281 163.056 23.7896C163.272 23.2982 163.397 22.7319 163.43 22.0906V20.454C163.405 19.9293 163.33 19.4588 163.205 19.0423C163.089 18.6176 162.914 18.2553 162.681 17.9555C162.456 17.6556 162.173 17.4224 161.831 17.2559C161.498 17.0893 161.103 17.006 160.644 17.006C160.178 17.006 159.778 17.1143 159.445 17.3308C159.112 17.539 158.841 17.8264 158.633 18.1928C158.433 18.5593 158.283 18.9924 158.183 19.4921C158.092 19.9835 158.046 20.5165 158.046 21.0912Z" fill="#E1E1E6"/>
</svg>
